<?xml version="1.0" encoding="UTF-8" standalone="no"?>
<svg
   version="1.1"
   viewBox="0 0 16 16"
   id="svg147"
   sodipodi:docname="drive-harddisk-encrypted-symbolic.svg"
   inkscape:version="1.2 (dc2aedaf03, 2022-05-15)"
   xmlns:inkscape="http://www.inkscape.org/namespaces/inkscape"
   xmlns:sodipodi="http://sodipodi.sourceforge.net/DTD/sodipodi-0.dtd"
   xmlns="http://www.w3.org/2000/svg"
   xmlns:svg="http://www.w3.org/2000/svg">
  <sodipodi:namedview
     id="namedview149"
     pagecolor="#000000"
     bordercolor="#999999"
     borderopacity="1"
     inkscape:showpageshadow="0"
     inkscape:pageopacity="0"
     inkscape:pagecheckerboard="0"
     inkscape:deskcolor="#d1d1d1"
     showgrid="true"
     inkscape:zoom="22.627417"
     inkscape:cx="9.8111066"
     inkscape:cy="12.617437"
     inkscape:current-layer="svg147">
    <inkscape:grid
       type="xygrid"
       id="grid1256" />
  </sodipodi:namedview>
  <defs
     id="defs135">
    <style
       id="current-color-scheme"
       type="text/css">.ColorScheme-Text { color:#ffffff; }</style>
  </defs>
  <path
     id="path1435"
     style="color:#ffffff;display:inline;fill:#ffffff"
     d="M 6 2 C 4.5005045 2 3.4574582 3.0366061 3.0683594 4.0332031 L 0.19921875 11.517578 C 0.19598675 11.525178 0.19456525 11.533386 0.19140625 11.541016 L 0.1328125 11.691406 L 0.14453125 11.691406 C 0.057482007 11.946154 0 12.21503 0 12.5 C 0 13.884997 1.1150042 15 2.5 15 L 12 15 L 12 14 L 2.5 14 C 1.6690024 14 1 13.330997 1 12.5 C 1 11.669003 1.6690024 11 2.5 11 L 12 11 L 13.5 11 L 15.601562 11 L 12.931641 4.0332031 C 12.542481 3.0366161 11.499397 2 10 2 L 8 2 L 6 2 z M 6 3 L 10 3 C 11.107997 3 11.7085 3.6498865 12 4.3964844 L 14.1875 10.107422 C 13.96789 10.044717 13.74028 10 13.5 10 L 2.5 10 C 2.2597206 10 2.0321094 10.04472 1.8125 10.107422 L 4 4.3964844 C 4.2915291 3.6499065 4.8920033 3 6 3 z M 8.5 12 A 0.5 0.5 0 0 0 8 12.5 A 0.5 0.5 0 0 0 8.5 13 A 0.5 0.5 0 0 0 9 12.5 A 0.5 0.5 0 0 0 8.5 12 z M 10.5 12 A 0.5 0.5 0 0 0 10 12.5 A 0.5 0.5 0 0 0 10.5 13 A 0.5 0.5 0 0 0 11 12.5 A 0.5 0.5 0 0 0 10.5 12 z " />
  <path
     d="m 14,11.272 c -0.638208,0 -1.152,0.513792 -1.152,1.152 V 13 c -0.319104,0 -0.576,0.256896 -0.576,0.576 v 1.44 c 0,0.319104 0.256896,0.576 0.576,0.576 h 2.304 c 0.319104,0 0.576,-0.256896 0.576,-0.576 v -1.44 C 15.728,13.256896 15.471104,13 15.152,13 v -0.576 c 0,-0.638208 -0.513792,-1.152 -1.152,-1.152 z m 0,0.288 c 0.478656,0 0.864,0.385344 0.864,0.864 V 13 h -1.728 v -0.576 c 0,-0.478656 0.385344,-0.864 0.864,-0.864 z m -1.152,1.728 h 2.304 c 0.159552,0 0.288,0.128448 0.288,0.288 v 1.44 c 0,0.159552 -0.128448,0.288 -0.288,0.288 h -2.304 c -0.159552,0 -0.288,-0.128448 -0.288,-0.288 v -1.44 c 0,-0.159552 0.128448,-0.288 0.288,-0.288 z"
     class="ColorScheme-Text"
     fill="currentColor"
     id="path5"
     style="color:#ffffff;stroke:#ffffff;stroke-width:0.2;stroke-opacity:1;stroke-dasharray:none" />
</svg>
